<svg width="515" height="164" viewBox="0 0 515 164" fill="none" xmlns="http://www.w3.org/2000/svg">
<line y1="-1.5" x2="99.2628" y2="-1.5" transform="matrix(0.482242 0.876038 -0.89161 0.452804 0 77)" stroke="black" stroke-width="3"/>
<line y1="-1.5" x2="103.61" y2="-1.5" transform="matrix(0.541494 -0.840705 0.858743 0.512406 50.9091 164.105)" stroke="black" stroke-width="3"/>
<line x1="103.896" y1="76.5" x2="480" y2="76.5" stroke="black" stroke-width="3"/>
<path d="M113.031 13.5L127.906 50.625L142.781 13.5H150.562V59H144.562V41.2812L145.125 22.1562L130.188 59H125.594L110.688 22.25L111.281 41.2812V59H105.281V13.5H113.031ZM158.719 41.7812C158.719 38.4688 159.365 35.4896 160.656 32.8438C161.969 30.1979 163.781 28.1562 166.094 26.7188C168.427 25.2812 171.083 24.5625 174.062 24.5625C178.667 24.5625 182.385 26.1562 185.219 29.3438C188.073 32.5312 189.5 36.7708 189.5 42.0625V42.4688C189.5 45.7604 188.865 48.7188 187.594 51.3438C186.344 53.9479 184.542 55.9792 182.188 57.4375C179.854 58.8958 177.167 59.625 174.125 59.625C169.542 59.625 165.823 58.0312 162.969 54.8438C160.135 51.6562 158.719 47.4375 158.719 42.1875V41.7812ZM164.531 42.4688C164.531 46.2188 165.396 49.2292 167.125 51.5C168.875 53.7708 171.208 54.9062 174.125 54.9062C177.062 54.9062 179.396 53.7604 181.125 51.4688C182.854 49.1562 183.719 45.9271 183.719 41.7812C183.719 38.0729 182.833 35.0729 181.062 32.7812C179.312 30.4688 176.979 29.3125 174.062 29.3125C171.208 29.3125 168.906 30.4479 167.156 32.7188C165.406 34.9896 164.531 38.2396 164.531 42.4688ZM195.344 41.8125C195.344 36.625 196.573 32.4583 199.031 29.3125C201.49 26.1458 204.708 24.5625 208.688 24.5625C212.646 24.5625 215.781 25.9167 218.094 28.625V11H223.875V59H218.562L218.281 55.375C215.969 58.2083 212.75 59.625 208.625 59.625C204.708 59.625 201.51 58.0208 199.031 54.8125C196.573 51.6042 195.344 47.4167 195.344 42.25V41.8125ZM201.125 42.4688C201.125 46.3021 201.917 49.3021 203.5 51.4688C205.083 53.6354 207.271 54.7188 210.062 54.7188C213.729 54.7188 216.406 53.0729 218.094 49.7812V34.25C216.365 31.0625 213.708 29.4688 210.125 29.4688C207.292 29.4688 205.083 30.5625 203.5 32.75C201.917 34.9375 201.125 38.1771 201.125 42.4688ZM253.75 59C253.417 58.3333 253.146 57.1458 252.938 55.4375C250.25 58.2292 247.042 59.625 243.312 59.625C239.979 59.625 237.24 58.6875 235.094 56.8125C232.969 54.9167 231.906 52.5208 231.906 49.625C231.906 46.1042 233.24 43.375 235.906 41.4375C238.594 39.4792 242.365 38.5 247.219 38.5H252.844V35.8438C252.844 33.8229 252.24 32.2188 251.031 31.0312C249.823 29.8229 248.042 29.2188 245.688 29.2188C243.625 29.2188 241.896 29.7396 240.5 30.7812C239.104 31.8229 238.406 33.0833 238.406 34.5625H232.594C232.594 32.875 233.188 31.25 234.375 29.6875C235.583 28.1042 237.208 26.8542 239.25 25.9375C241.312 25.0208 243.573 24.5625 246.031 24.5625C249.927 24.5625 252.979 25.5417 255.188 27.5C257.396 29.4375 258.542 32.1146 258.625 35.5312V51.0938C258.625 54.1979 259.021 56.6667 259.812 58.5V59H253.75ZM244.156 54.5938C245.969 54.5938 247.688 54.125 249.312 53.1875C250.938 52.25 252.115 51.0312 252.844 49.5312V42.5938H248.312C241.229 42.5938 237.688 44.6667 237.688 48.8125C237.688 50.625 238.292 52.0417 239.5 53.0625C240.708 54.0833 242.26 54.5938 244.156 54.5938ZM273.969 59H268.188V11H273.969V59ZM297.562 38.7188C292.417 37.2396 288.667 35.4271 286.312 33.2812C283.979 31.1146 282.812 28.4479 282.812 25.2812C282.812 21.6979 284.24 18.7396 287.094 16.4062C289.969 14.0521 293.698 12.875 298.281 12.875C301.406 12.875 304.188 13.4792 306.625 14.6875C309.083 15.8958 310.979 17.5625 312.312 19.6875C313.667 21.8125 314.344 24.1354 314.344 26.6562H308.312C308.312 23.9062 307.438 21.75 305.688 20.1875C303.938 18.6042 301.469 17.8125 298.281 17.8125C295.323 17.8125 293.01 18.4688 291.344 19.7812C289.698 21.0729 288.875 22.875 288.875 25.1875C288.875 27.0417 289.656 28.6146 291.219 29.9062C292.802 31.1771 295.479 32.3438 299.25 33.4062C303.042 34.4688 306 35.6458 308.125 36.9375C310.271 38.2083 311.854 39.6979 312.875 41.4062C313.917 43.1146 314.438 45.125 314.438 47.4375C314.438 51.125 313 54.0833 310.125 56.3125C307.25 58.5208 303.406 59.625 298.594 59.625C295.469 59.625 292.552 59.0312 289.844 57.8438C287.135 56.6354 285.042 54.9896 283.562 52.9062C282.104 50.8229 281.375 48.4583 281.375 45.8125H287.406C287.406 48.5625 288.417 50.7396 290.438 52.3438C292.479 53.9271 295.198 54.7188 298.594 54.7188C301.76 54.7188 304.188 54.0729 305.875 52.7812C307.562 51.4896 308.406 49.7292 308.406 47.5C308.406 45.2708 307.625 43.5521 306.062 42.3438C304.5 41.1146 301.667 39.9062 297.562 38.7188ZM319.844 41.8125C319.844 36.5 321.062 32.3021 323.5 29.2188C325.938 26.1146 329.208 24.5625 333.312 24.5625C337.312 24.5625 340.469 25.9062 342.781 28.5938L343.031 25.1875H348.344V72H342.562V55.875C340.229 58.375 337.125 59.625 333.25 59.625C329.167 59.625 325.906 58.0417 323.469 54.875C321.052 51.6875 319.844 47.4688 319.844 42.2188V41.8125ZM325.625 42.4688C325.625 46.3438 326.438 49.3854 328.062 51.5938C329.708 53.8021 331.917 54.9062 334.688 54.9062C338.125 54.9062 340.75 53.3854 342.562 50.3438V33.7812C340.729 30.8021 338.125 29.3125 334.75 29.3125C331.958 29.3125 329.74 30.4271 328.094 32.6562C326.448 34.8646 325.625 38.1354 325.625 42.4688ZM378.5 55.6562C376.25 58.3021 372.948 59.625 368.594 59.625C364.99 59.625 362.24 58.5833 360.344 56.5C358.469 54.3958 357.521 51.2917 357.5 47.1875V25.1875H363.281V47.0312C363.281 52.1562 365.365 54.7188 369.531 54.7188C373.948 54.7188 376.885 53.0729 378.344 49.7812V25.1875H384.125V59H378.625L378.5 55.6562ZM413.812 59C413.479 58.3333 413.208 57.1458 413 55.4375C410.312 58.2292 407.104 59.625 403.375 59.625C400.042 59.625 397.302 58.6875 395.156 56.8125C393.031 54.9167 391.969 52.5208 391.969 49.625C391.969 46.1042 393.302 43.375 395.969 41.4375C398.656 39.4792 402.427 38.5 407.281 38.5H412.906V35.8438C412.906 33.8229 412.302 32.2188 411.094 31.0312C409.885 29.8229 408.104 29.2188 405.75 29.2188C403.688 29.2188 401.958 29.7396 400.562 30.7812C399.167 31.8229 398.469 33.0833 398.469 34.5625H392.656C392.656 32.875 393.25 31.25 394.438 29.6875C395.646 28.1042 397.271 26.8542 399.312 25.9375C401.375 25.0208 403.635 24.5625 406.094 24.5625C409.99 24.5625 413.042 25.5417 415.25 27.5C417.458 29.4375 418.604 32.1146 418.688 35.5312V51.0938C418.688 54.1979 419.083 56.6667 419.875 58.5V59H413.812ZM404.219 54.5938C406.031 54.5938 407.75 54.125 409.375 53.1875C411 52.25 412.177 51.0312 412.906 49.5312V42.5938H408.375C401.292 42.5938 397.75 44.6667 397.75 48.8125C397.75 50.625 398.354 52.0417 399.562 53.0625C400.771 54.0833 402.323 54.5938 404.219 54.5938ZM444.094 30.375C443.219 30.2292 442.271 30.1562 441.25 30.1562C437.458 30.1562 434.885 31.7708 433.531 35V59H427.75V25.1875H433.375L433.469 29.0938C435.365 26.0729 438.052 24.5625 441.531 24.5625C442.656 24.5625 443.51 24.7083 444.094 25V30.375ZM462.844 59.625C458.26 59.625 454.531 58.125 451.656 55.125C448.781 52.1042 447.344 48.0729 447.344 43.0312V41.9688C447.344 38.6146 447.979 35.625 449.25 33C450.542 30.3542 452.333 28.2917 454.625 26.8125C456.938 25.3125 459.438 24.5625 462.125 24.5625C466.521 24.5625 469.938 26.0104 472.375 28.9062C474.812 31.8021 476.031 35.9479 476.031 41.3438V43.75H453.125C453.208 47.0833 454.177 49.7812 456.031 51.8438C457.906 53.8854 460.281 54.9062 463.156 54.9062C465.198 54.9062 466.927 54.4896 468.344 53.6562C469.76 52.8229 471 51.7188 472.062 50.3438L475.594 53.0938C472.76 57.4479 468.51 59.625 462.844 59.625ZM462.125 29.3125C459.792 29.3125 457.833 30.1667 456.25 31.875C454.667 33.5625 453.688 35.9375 453.312 39H470.25V38.5625C470.083 35.625 469.292 33.3542 467.875 31.75C466.458 30.125 464.542 29.3125 462.125 29.3125ZM481.344 41.8125C481.344 36.625 482.573 32.4583 485.031 29.3125C487.49 26.1458 490.708 24.5625 494.688 24.5625C498.646 24.5625 501.781 25.9167 504.094 28.625V11H509.875V59H504.562L504.281 55.375C501.969 58.2083 498.75 59.625 494.625 59.625C490.708 59.625 487.51 58.0208 485.031 54.8125C482.573 51.6042 481.344 47.4167 481.344 42.25V41.8125ZM487.125 42.4688C487.125 46.3021 487.917 49.3021 489.5 51.4688C491.083 53.6354 493.271 54.7188 496.062 54.7188C499.729 54.7188 502.406 53.0729 504.094 49.7812V34.25C502.365 31.0625 499.708 29.4688 496.125 29.4688C493.292 29.4688 491.083 30.5625 489.5 32.75C487.917 34.9375 487.125 38.1771 487.125 42.4688Z" fill="#FF0000"/>
</svg>
